Bagnard.ufo
<glyph name="exclam" format="1">
  <advance width="293"/>
  <unicode hex="0021"/>
  <outline>
    <contour>
      <point x="161" y="219" type="line"/>
      <point x="226" y="639" type="line"/>
      <point x="67" y="639" type="line"/>
      <point x="132" y="219" type="line"/>
    </contour>
    <contour>
      <point x="69" y="67" type="curve" smooth="yes"/>
      <point x="69" y="24"/>
      <point x="103" y="-10"/>
      <point x="146" y="-10" type="curve" smooth="yes"/>
      <point x="189" y="-10"/>
      <point x="224" y="24"/>
      <point x="224" y="67" type="curve" smooth="yes"/>
      <point x="224" y="110"/>
      <point x="189" y="145"/>
      <point x="146" y="145" type="curve" smooth="yes"/>
      <point x="103" y="145"/>
      <point x="69" y="110"/>
    </contour>
    <contour>
      <point x="65" y="658" type="curve" smooth="yes"/>
      <point x="65" y="613"/>
      <point x="101" y="577"/>
      <point x="146" y="577" type="curve" smooth="yes"/>
      <point x="191" y="577"/>
      <point x="228" y="613"/>
      <point x="228" y="658" type="curve" smooth="yes"/>
      <point x="228" y="703"/>
      <point x="191" y="740"/>
      <point x="146" y="740" type="curve" smooth="yes"/>
      <point x="101" y="740"/>
      <point x="65" y="703"/>
    </contour>
  </outline>
</glyph>
<glyph name="dollar" format="1">
  <advance width="640"/>
  <unicode hex="0024"/>
  <outline>
    <contour>
      <point x="330" y="733" type="curve" smooth="yes"/>
      <point x="195" y="733"/>
      <point x="80" y="672"/>
      <point x="80" y="528" type="curve" smooth="yes"/>
      <point x="80" y="403"/>
      <point x="199" y="342"/>
      <point x="243" y="321" type="curve"/>
      <point x="316" y="289"/>
      <point x="439" y="253"/>
      <point x="439" y="160" type="curve" smooth="yes"/>
      <point x="439" y="83"/>
      <point x="386" y="50"/>
      <point x="317" y="50" type="curve" smooth="yes"/>
      <point x="221" y="50"/>
      <point x="154" y="154"/>
      <point x="85" y="328" type="curve"/>
      <point x="82" y="-11" type="line"/>
      <point x="82" y="-11"/>
      <point x="183" y="59"/>
      <point x="183" y="59" type="curve"/>
      <point x="183" y="59"/>
      <point x="114" y="88"/>
      <point x="114" y="88" type="curve"/>
      <point x="152" y="41"/>
      <point x="222" y="-6"/>
      <point x="327" y="-6" type="curve" smooth="yes"/>
      <point x="475" y="-6"/>
      <point x="560" y="83"/>
      <point x="560" y="193" type="curve" smooth="yes"/>
      <point x="560" y="321"/>
      <point x="472" y="375"/>
      <point x="394" y="414" type="curve"/>
      <point x="266" y="469"/>
      <point x="196" y="487"/>
      <point x="196" y="572" type="curve" smooth="yes"/>
      <point x="196" y="630"/>
      <point x="248" y="679"/>
      <point x="308" y="679" type="curve" smooth="yes"/>
      <point x="426" y="679"/>
      <point x="463" y="600"/>
      <point x="549" y="400" type="curve"/>
      <point x="551" y="741" type="line"/>
      <point x="551" y="741"/>
      <point x="449" y="669"/>
      <point x="449" y="669" type="curve"/>
      <point x="449" y="669"/>
      <point x="508" y="656"/>
      <point x="508" y="656" type="curve"/>
      <point x="476" y="691"/>
      <point x="395" y="733"/>
    </contour>
    <contour>
      <point x="286" y="-64" type="line"/>
      <point x="340" y="-64" type="line"/>
      <point x="340" y="783" type="line"/>
      <point x="286" y="783" type="line"/>
    </contour>
  </outline>
</glyph>
<glyph name="parenleft" format="1">
  <advance width="387"/>
  <unicode hex="0028"/>
  <outline>
    <contour>
      <point x="357" y="786" type="line"/>
      <point x="244" y="660"/>
      <point x="201" y="473"/>
      <point x="201" y="319" type="curve" smooth="yes"/>
      <point x="201" y="165"/>
      <point x="244" y="-22"/>
      <point x="357" y="-148" type="curve"/>
      <point x="325" y="-184" type="line"/>
      <point x="183" y="-60"/>
      <point x="80" y="133"/>
      <point x="80" y="319" type="curve" smooth="yes"/>
      <point x="80" y="508"/>
      <point x="193" y="711"/>
      <point x="325" y="822" type="curve"/>
    </contour>
  </outline>
</glyph>
<glyph name="parenright" format="1">
  <advance width="387"/>
  <unicode hex="0029"/>
  <outline>
    <contour>
      <point x="30" y="786" type="line"/>
      <point x="143" y="660"/>
      <point x="186" y="473"/>
      <point x="186" y="319" type="curve" smooth="yes"/>
      <point x="186" y="165"/>
      <point x="143" y="-22"/>
      <point x="30" y="-148" type="curve"/>
      <point x="62" y="-184" type="line"/>
      <point x="204" y="-60"/>
      <point x="307" y="133"/>
      <point x="307" y="319" type="curve" smooth="yes"/>
      <point x="307" y="508"/>
      <point x="194" y="711"/>
      <point x="62" y="822" type="curve"/>
    </contour>
  </outline>
</glyph>
<glyph name="hyphen" format="1">
  <advance width="385"/>
  <unicode hex="002D"/>
  <outline>
    <contour>
      <point x="60" y="220" type="line"/>
      <point x="325" y="220" type="line"/>
      <point x="325" y="288" type="line"/>
      <point x="60" y="288" type="line"/>
    </contour>
  </outline>
</glyph>
<glyph name="period" format="1">
  <advance width="301"/>
  <unicode hex="002E"/>
  <outline>
    <contour>
      <point x="65" y="75" type="curve" smooth="yes"/>
      <point x="65" y="28"/>
      <point x="103" y="-10"/>
      <point x="150" y="-10" type="curve" smooth="yes"/>
      <point x="198" y="-10"/>
      <point x="236" y="28"/>
      <point x="236" y="75" type="curve" smooth="yes"/>
      <point x="236" y="123"/>
      <point x="198" y="161"/>
      <point x="150" y="161" type="curve" smooth="yes"/>
      <point x="103" y="161"/>
      <point x="65" y="123"/>
    </contour>
  </outline>
</glyph>
<glyph name="slash" format="1">
  <advance width="364"/>
  <unicode hex="002F"/>
  <outline>
    <contour>
      <point x="-13" y="12" type="line"/>
      <point x="55" y="-12" type="line"/>
      <point x="372" y="728" type="line"/>
      <point x="304" y="752" type="line"/>
    </contour>
  </outline>
</glyph>
<glyph name="one" format="1">
  <advance width="454"/>
  <unicode hex="0031"/>
  <outline>
    <contour>
      <point x="29" y="0" type="line"/>
      <point x="215" y="0" type="line"/>
      <point x="215" y="0"/>
      <point x="215" y="103"/>
      <point x="215" y="103" type="curve"/>
    </contour>
    <contour>
      <point x="263" y="103" type="line"/>
      <point x="263" y="103"/>
      <point x="263" y="0"/>
      <point x="263" y="0" type="curve"/>
      <point x="429" y="0" type="line"/>
    </contour>
    <contour>
      <point x="182" y="0" type="line"/>
      <point x="301" y="0" type="line"/>
      <point x="302" y="750" type="line"/>
      <point x="182" y="660" type="line"/>
    </contour>
    <contour>
      <point x="266" y="582" type="line"/>
      <point x="266" y="723" type="line"/>
      <point x="20" y="562" type="line"/>
    </contour>
  </outline>
</glyph>
<glyph name="two" format="1">
  <advance width="521"/>
  <unicode hex="0032"/>
  <outline>
    <contour>
      <point x="87" y="48" type="line"/>
      <point x="259" y="238"/>
      <point x="450" y="350"/>
      <point x="450" y="529" type="curve"/>
      <point x="450" y="644"/>
      <point x="359" y="733"/>
      <point x="238" y="733" type="curve" smooth="yes"/>
      <point x="102" y="733"/>
      <point x="12" y="645"/>
      <point x="26" y="493" type="curve"/>
      <point x="42" y="584"/>
      <point x="110" y="635"/>
      <point x="188" y="635" type="curve" smooth="yes"/>
      <point x="247" y="635"/>
      <point x="316" y="590"/>
      <point x="316" y="485" type="curve"/>
      <point x="309" y="348"/>
      <point x="218" y="258"/>
      <point x="70" y="100" type="curve"/>
    </contour>
    <contour>
      <point x="-22" y="0" type="line"/>
      <point x="431" y="0" type="line"/>
      <point x="458" y="100" type="line"/>
      <point x="70" y="100" type="line"/>
    </contour>
    <contour>
      <point x="442" y="39" type="line"/>
      <point x="488" y="222" type="line"/>
      <point x="488" y="222"/>
      <point x="352" y="79"/>
      <point x="352" y="79" type="curve"/>
    </contour>
    <contour>
      <point x="386" y="5" type="line"/>
      <point x="423" y="-36" type="line"/>
      <point x="434" y="9" type="line"/>
    </contour>
  </outline>
</glyph>
<glyph name="four" format="1">
  <advance width="590"/>
  <unicode hex="0034"/>
  <outline>
    <contour>
      <point x="340" y="0" type="line"/>
      <point x="459" y="0" type="line"/>
      <point x="460" y="787" type="line"/>
      <point x="340" y="630" type="line"/>
    </contour>
    <contour>
      <point x="84" y="227" type="line"/>
      <point x="442" y="673" type="line"/>
      <point x="373" y="673" type="line"/>
      <point x="32" y="241" type="line"/>
    </contour>
    <contour>
      <point x="17" y="222" type="line"/>
      <point x="17" y="189" type="line"/>
      <point x="559" y="189" type="line"/>
      <point x="559" y="261" type="line"/>
      <point x="48" y="261" type="line"/>
    </contour>
    <contour>
      <point x="185" y="0" type="line"/>
      <point x="371" y="0" type="line"/>
      <point x="371" y="0"/>
      <point x="371" y="103"/>
      <point x="371" y="103" type="curve"/>
    </contour>
    <contour>
      <point x="419" y="103" type="line"/>
      <point x="419" y="103"/>
      <point x="419" y="0"/>
      <point x="419" y="0" type="curve"/>
      <point x="565" y="0" type="line"/>
    </contour>
  </outline>
</glyph>
<glyph name="five" format="1">
  <advance width="536"/>
  <unicode hex="0035"/>
  <outline>
    <contour>
      <point x="113" y="718" type="line"/>
      <point x="163" y="718" type="line"/>
      <point x="124" y="413" type="line"/>
      <point x="75" y="414" type="line"/>
    </contour>
    <contour>
      <point x="123" y="719" type="line"/>
      <point x="483" y="719" type="line"/>
      <point x="466" y="609" type="line"/>
      <point x="128" y="609" type="line"/>
    </contour>
    <contour>
      <point x="394" y="698" type="line"/>
      <point x="394" y="698"/>
      <point x="496" y="801"/>
      <point x="496" y="801" type="curve"/>
      <point x="473" y="658" type="line"/>
    </contour>
    <contour>
      <point x="83" y="478" type="line"/>
      <point x="115" y="493"/>
      <point x="181" y="497"/>
      <point x="217" y="496" type="curve" smooth="yes"/>
      <point x="366" y="491"/>
      <point x="489" y="421"/>
      <point x="494" y="261" type="curve" smooth="yes"/>
      <point x="499" y="94"/>
      <point x="383" y="-10"/>
      <point x="230" y="-10" type="curve" smooth="yes"/>
      <point x="111" y="-10"/>
      <point x="48" y="71"/>
      <point x="32" y="132" type="curve"/>
      <point x="98" y="95" type="line"/>
      <point x="123" y="63"/>
      <point x="171" y="48"/>
      <point x="209" y="48" type="curve" smooth="yes"/>
      <point x="316" y="48"/>
      <point x="385" y="120"/>
      <point x="381" y="222" type="curve" smooth="yes"/>
      <point x="377" y="335"/>
      <point x="280" y="380"/>
      <point x="191" y="381" type="curve" smooth="yes"/>
      <point x="163" y="381"/>
      <point x="95" y="375"/>
      <point x="67" y="354" type="curve"/>
    </contour>
    <contour>
      <point x="26" y="152" type="curve" smooth="yes"/>
      <point x="24" y="190"/>
      <point x="55" y="221"/>
      <point x="92" y="221" type="curve" smooth="yes"/>
      <point x="128" y="221"/>
      <point x="159" y="190"/>
      <point x="161" y="152" type="curve" smooth="yes"/>
      <point x="163" y="114"/>
      <point x="133" y="83"/>
      <point x="96" y="83" type="curve" smooth="yes"/>
      <point x="58" y="83"/>
      <point x="28" y="114"/>
    </contour>
  </outline>
</glyph>
<glyph name="six" format="1">
  <advance width="561"/>
  <unicode hex="0036"/>
  <outline>
    <contour>
      <point x="311" y="447" type="curve" smooth="yes"/>
      <point x="449" y="447"/>
      <point x="531" y="370"/>
      <point x="531" y="243" type="curve" smooth="yes"/>
      <point x="531" y="88"/>
      <point x="417" y="-9"/>
      <point x="282" y="-9" type="curve" smooth="yes"/>
      <point x="87" y="-9"/>
      <point x="35" y="133"/>
      <point x="35" y="280" type="curve" smooth="yes"/>
      <point x="35" y="405"/>
      <point x="125" y="535"/>
      <point x="177" y="591" type="curve" smooth="yes"/>
      <point x="242" y="661"/>
      <point x="368" y="745"/>
      <point x="459" y="734" type="curve"/>
      <point x="385" y="699"/>
      <point x="287" y="601"/>
      <point x="244" y="532" type="curve" smooth="yes"/>
      <point x="209" y="476"/>
      <point x="172" y="397"/>
      <point x="172" y="264" type="curve" smooth="yes"/>
      <point x="172" y="164"/>
      <point x="177" y="41"/>
      <point x="292" y="41" type="curve" smooth="yes"/>
      <point x="358" y="41"/>
      <point x="394" y="100"/>
      <point x="394" y="207" type="curve" smooth="yes"/>
      <point x="394" y="313"/>
      <point x="354" y="389"/>
      <point x="277" y="389" type="curve" smooth="yes"/>
      <point x="224" y="389"/>
      <point x="176" y="359"/>
      <point x="167" y="274" type="curve"/>
      <point x="143" y="338" type="line"/>
      <point x="163" y="407"/>
      <point x="246" y="447"/>
    </contour>
  </outline>
</glyph>
<glyph name="seven" format="1">
  <advance width="456"/>
  <unicode hex="0037"/>
  <outline>
    <contour>
      <point x="395" y="685" type="line"/>
      <point x="36" y="0" type="line"/>
      <point x="190" y="0" type="line"/>
      <point x="422" y="621" type="line"/>
    </contour>
    <contour>
      <point x="487" y="733" type="line"/>
      <point x="9" y="733" type="line"/>
      <point x="10" y="623" type="line"/>
      <point x="423" y="623" type="line"/>
    </contour>
    <contour>
      <point x="16" y="694" type="line"/>
      <point x="11" y="694"/>
      <point x="0" y="510"/>
      <point x="0" y="510" type="curve"/>
      <point x="0" y="510"/>
      <point x="107" y="687"/>
      <point x="107" y="687" type="curve"/>
    </contour>
  </outline>
</glyph>
<glyph name="nine" format="1">
  <advance width="561"/>
  <unicode hex="0039"/>
  <outline>
    <contour>
      <point x="250" y="273" type="curve" smooth="yes"/>
      <point x="112" y="273"/>
      <point x="30" y="350"/>
      <point x="30" y="477" type="curve" smooth="yes"/>
      <point x="30" y="632"/>
      <point x="144" y="729"/>
      <point x="279" y="729" type="curve" smooth="yes"/>
      <point x="474" y="729"/>
      <point x="526" y="587"/>
      <point x="526" y="440" type="curve" smooth="yes"/>
      <point x="526" y="315"/>
      <point x="436" y="185"/>
      <point x="384" y="129" type="curve" smooth="yes"/>
      <point x="334" y="75"/>
      <point x="236" y="9"/>
      <point x="159" y="-10" type="curve" smooth="yes"/>
      <point x="119" y="-20"/>
      <point x="99" y="2"/>
      <point x="144" y="26" type="curve" smooth="yes"/>
      <point x="252" y="84"/>
      <point x="389" y="174"/>
      <point x="389" y="456" type="curve" smooth="yes"/>
      <point x="389" y="556"/>
      <point x="384" y="679"/>
      <point x="269" y="679" type="curve" smooth="yes"/>
      <point x="203" y="679"/>
      <point x="167" y="620"/>
      <point x="167" y="513" type="curve" smooth="yes"/>
      <point x="167" y="407"/>
      <point x="207" y="331"/>
      <point x="284" y="331" type="curve" smooth="yes"/>
      <point x="337" y="331"/>
      <point x="385" y="361"/>
      <point x="394" y="446" type="curve"/>
      <point x="418" y="382" type="line"/>
      <point x="398" y="313"/>
      <point x="315" y="273"/>
    </contour>
  </outline>
</glyph>
<glyph name="question" format="1">
  <advance width="510"/>
  <unicode hex="003F"/>
  <outline>
    <contour>
      <point x="41" y="600" type="curve" smooth="yes"/>
      <point x="41" y="659"/>
      <point x="132" y="741"/>
      <point x="238" y="741" type="curve" smooth="yes"/>
      <point x="255" y="741" type="line"/>
      <point x="345" y="741"/>
      <point x="468" y="691"/>
      <point x="468" y="557" type="curve" smooth="yes"/>
      <point x="468" y="469"/>
      <point x="399" y="374"/>
      <point x="253" y="359" type="curve"/>
      <point x="221" y="219" type="line"/>
      <point x="197" y="219" type="line"/>
      <point x="174" y="433" type="line"/>
      <point x="303" y="435"/>
      <point x="340" y="508"/>
      <point x="340" y="571" type="curve"/>
      <point x="339" y="654"/>
      <point x="276" y="697"/>
      <point x="203" y="697" type="curve" smooth="yes"/>
      <point x="172" y="697"/>
      <point x="142" y="690"/>
      <point x="127" y="670" type="curve"/>
      <point x="160" y="670"/>
      <point x="196" y="638"/>
      <point x="196" y="595" type="curve" smooth="yes"/>
      <point x="196" y="552"/>
      <point x="161" y="518"/>
      <point x="118" y="518" type="curve" smooth="yes"/>
      <point x="75" y="518"/>
      <point x="41" y="547"/>
    </contour>
    <contour>
      <point x="132" y="67" type="curve" smooth="yes"/>
      <point x="132" y="24"/>
      <point x="166" y="-10"/>
      <point x="209" y="-10" type="curve" smooth="yes"/>
      <point x="252" y="-10"/>
      <point x="287" y="24"/>
      <point x="287" y="67" type="curve" smooth="yes"/>
      <point x="287" y="110"/>
      <point x="252" y="145"/>
      <point x="209" y="145" type="curve" smooth="yes"/>
      <point x="166" y="145"/>
      <point x="132" y="110"/>
    </contour>
  </outline>
</glyph>
<glyph name="A" format="1">
  <advance width="748"/>
  <unicode hex="0041"/>
  <outline>
    <contour>
      <point x="509" y="32" type="line"/>
      <point x="667" y="32" type="line"/>
      <point x="392" y="727" type="line"/>
      <point x="339" y="727" type="line"/>
      <point x="296" y="600" type="line"/>
    </contour>
    <contour>
      <point x="395" y="0" type="line"/>
      <point x="573" y="0" type="line"/>
      <point x="573" y="0"/>
      <point x="573" y="138"/>
      <point x="573" y="138" type="curve"/>
    </contour>
    <contour>
      <point x="570" y="138" type="line"/>
      <point x="570" y="138"/>
      <point x="570" y="0"/>
      <point x="570" y="0" type="curve"/>
      <point x="728" y="0" type="line"/>
    </contour>
    <contour>
      <point x="366" y="633" type="line"/>
      <point x="361" y="727" type="line"/>
      <point x="339" y="727" type="line"/>
      <point x="47" y="32" type="line"/>
      <point x="122" y="32" type="line"/>
    </contour>
    <contour>
      <point x="-16" y="0" type="line"/>
      <point x="100" y="0" type="line"/>
      <point x="100" y="113" type="line"/>
    </contour>
    <contour>
      <point x="84" y="107" type="line"/>
      <point x="78" y="0" type="line"/>
      <point x="222" y="0" type="line"/>
    </contour>
    <contour>
      <point x="172" y="209" type="line"/>
      <point x="519" y="209" type="line"/>
      <point x="519" y="266" type="line"/>
      <point x="172" y="266" type="line"/>
    </contour>
  </outline>
</glyph>
<glyph name="B" format="1">
  <advance width="726"/>
  <unicode hex="0042"/>
  <outline>
    <contour>
      <point x="129" y="0" type="line"/>
      <point x="269" y="0" type="line"/>
      <point x="269" y="698" type="line"/>
      <point x="129" y="698" type="line"/>
    </contour>
    <contour>
      <point x="197" y="718" type="line"/>
      <point x="197" y="718"/>
      <point x="197" y="667"/>
      <point x="197" y="667" type="curve"/>
      <point x="281" y="667" type="line" smooth="yes"/>
      <point x="343" y="667"/>
      <point x="390" y="668"/>
      <point x="427" y="648" type="curve"/>
      <point x="466" y="629"/>
      <point x="487" y="581"/>
      <point x="487" y="526" type="curve" smooth="yes"/>
      <point x="487" y="390"/>
      <point x="361" y="393"/>
      <point x="245" y="393" type="curve"/>
      <point x="245" y="349" type="line"/>
      <point x="438" y="363" type="line"/>
      <point x="596" y="401"/>
      <point x="636" y="469"/>
      <point x="636" y="551" type="curve" smooth="yes"/>
      <point x="636" y="645"/>
      <point x="559" y="719"/>
      <point x="429" y="719" type="curve" smooth="yes"/>
      <point x="323" y="719"/>
      <point x="207" y="718"/>
      <point x="207" y="718" type="curve"/>
    </contour>
    <contour>
      <point x="25" y="0" type="line"/>
      <point x="203" y="0" type="line"/>
      <point x="203" y="0"/>
      <point x="203" y="138"/>
      <point x="203" y="138" type="curve"/>
    </contour>
    <contour>
      <point x="203" y="580" type="line"/>
      <point x="203" y="580"/>
      <point x="203" y="718"/>
      <point x="203" y="718" type="curve"/>
      <point x="25" y="718" type="line"/>
    </contour>
    <contour>
      <point x="237" y="383" type="line"/>
      <point x="237" y="383"/>
      <point x="237" y="342"/>
      <point x="237" y="342" type="curve"/>
      <point x="321" y="342" type="line" smooth="yes"/>
      <point x="452" y="342"/>
      <point x="527" y="288"/>
      <point x="527" y="191" type="curve" smooth="yes"/>
      <point x="527" y="95"/>
      <point x="448" y="53"/>
      <point x="363" y="51" type="curve"/>
      <point x="265" y="51" type="line"/>
      <point x="265" y="0" type="line"/>
      <point x="265" y="0"/>
      <point x="336" y="0"/>
      <point x="438" y="0" type="curve" smooth="yes"/>
      <point x="600" y="0"/>
      <point x="676" y="90"/>
      <point x="676" y="186" type="curve" smooth="yes"/>
      <point x="676" y="318"/>
      <point x="569" y="374"/>
      <point x="439" y="374" type="curve" smooth="yes"/>
      <point x="333" y="374"/>
      <point x="247" y="383"/>
      <point x="247" y="383" type="curve"/>
    </contour>
  </outline>
</glyph>
<glyph name="C" format="1">
  <advance width="749"/>
  <unicode hex="0043"/>
  <outline>
    <contour>
      <point x="679" y="-30" type="line"/>
      <point x="540" y="79" type="line"/>
      <point x="644" y="142" type="line"/>
      <point x="574" y="21"/>
      <point x="486" y="-18"/>
      <point x="390" y="-18" type="curve" smooth="yes"/>
      <point x="183" y="-18"/>
      <point x="50" y="135"/>
      <point x="50" y="337" type="curve" smooth="yes"/>
      <point x="50" y="589"/>
      <point x="196" y="734"/>
      <point x="415" y="734" type="curve" smooth="yes"/>
      <point x="492" y="734"/>
      <point x="601" y="681"/>
      <point x="644" y="571" type="curve"/>
      <point x="540" y="634" type="line"/>
      <point x="679" y="743" type="line"/>
      <point x="679" y="418" type="line"/>
      <point x="591" y="554"/>
      <point x="539" y="665"/>
      <point x="410" y="665" type="curve" smooth="yes"/>
      <point x="290" y="665"/>
      <point x="207" y="540"/>
      <point x="207" y="368" type="curve" smooth="yes"/>
      <point x="207" y="196"/>
      <point x="269" y="48"/>
      <point x="412" y="48" type="curve" smooth="yes"/>
      <point x="553" y="48"/>
      <point x="627" y="220"/>
      <point x="679" y="295" type="curve"/>
    </contour>
  </outline>
</glyph>
<glyph name="F" format="1">
  <advance width="636"/>
  <unicode hex="0046"/>
  <outline>
    <contour>
      <point x="191" y="661" type="line"/>
      <point x="618" y="661" type="line"/>
      <point x="618" y="718" type="line"/>
      <point x="191" y="718" type="line"/>
    </contour>
    <contour>
      <point x="129" y="32" type="line"/>
      <point x="269" y="32" type="line"/>
      <point x="269" y="698" type="line"/>
      <point x="129" y="698" type="line"/>
    </contour>
    <contour>
      <point x="25" y="0" type="line"/>
      <point x="203" y="0" type="line"/>
      <point x="203" y="0"/>
      <point x="203" y="138"/>
      <point x="203" y="138" type="curve"/>
    </contour>
    <contour>
      <point x="203" y="580" type="line"/>
      <point x="203" y="580"/>
      <point x="203" y="718"/>
      <point x="203" y="718" type="curve"/>
      <point x="25" y="718" type="line"/>
    </contour>
    <contour>
      <point x="200" y="138" type="line"/>
      <point x="200" y="138"/>
      <point x="200" y="0"/>
      <point x="200" y="0" type="curve"/>
      <point x="378" y="0" type="line"/>
    </contour>
    <contour>
      <point x="266" y="326" type="line"/>
      <point x="398" y="326" type="line"/>
      <point x="492" y="186" type="line"/>
      <point x="492" y="527" type="line"/>
      <point x="398" y="387" type="line"/>
      <point x="266" y="387" type="line"/>
    </contour>
    <contour>
      <point x="656" y="449" type="line"/>
      <point x="636" y="718" type="line"/>
      <point x="636" y="718"/>
      <point x="443" y="718"/>
      <point x="443" y="718" type="curve"/>
    </contour>
  </outline>
</glyph>
<glyph name="I" format="1">
  <advance width="403"/>
  <unicode hex="0049"/>
  <outline>
    <contour>
      <point x="129" y="32" type="line"/>
      <point x="269" y="32" type="line"/>
      <point x="269" y="698" type="line"/>
      <point x="129" y="698" type="line"/>
    </contour>
    <contour>
      <point x="25" y="0" type="line"/>
      <point x="203" y="0" type="line"/>
      <point x="203" y="0"/>
      <point x="203" y="138"/>
      <point x="203" y="138" type="curve"/>
    </contour>
    <contour>
      <point x="203" y="580" type="line"/>
      <point x="203" y="580"/>
      <point x="203" y="718"/>
      <point x="203" y="718" type="curve"/>
      <point x="25" y="718" type="line"/>
    </contour>
    <contour>
      <point x="200" y="138" type="line"/>
      <point x="200" y="138"/>
      <point x="200" y="0"/>
      <point x="200" y="0" type="curve"/>
      <point x="378" y="0" type="line"/>
    </contour>
    <contour>
      <point x="378" y="718" type="line"/>
      <point x="200" y="718" type="line"/>
      <point x="200" y="718"/>
      <point x="200" y="580"/>
      <point x="200" y="580" type="curve"/>
    </contour>
  </outline>
</glyph>
<glyph name="J" format="1">
  <advance width="378"/>
  <unicode hex="004A"/>
  <outline>
    <contour>
      <point x="29" y="-224" type="curve"/>
      <point x="124" y="-224"/>
      <point x="260" y="-169"/>
      <point x="260" y="53" type="curve"/>
      <point x="260" y="260" type="line"/>
      <point x="120" y="223" type="line"/>
      <point x="120" y="37" type="line"/>
      <point x="118" y="-141"/>
      <point x="75" y="-168"/>
    </contour>
    <contour>
      <point x="120" y="92" type="line"/>
      <point x="260" y="92" type="line"/>
      <point x="260" y="698" type="line"/>
      <point x="120" y="698" type="line"/>
    </contour>
    <contour>
      <point x="194" y="580" type="line"/>
      <point x="194" y="580"/>
      <point x="194" y="718"/>
      <point x="194" y="718" type="curve"/>
      <point x="16" y="718" type="line"/>
    </contour>
    <contour>
      <point x="369" y="718" type="line"/>
      <point x="191" y="718" type="line"/>
      <point x="191" y="718"/>
      <point x="191" y="580"/>
      <point x="191" y="580" type="curve"/>
    </contour>
  </outline>
</glyph>
<glyph name="L" format="1">
  <advance width="722"/>
  <unicode hex="004C"/>
  <outline>
    <contour>
      <point x="191" y="0" type="line"/>
      <point x="595" y="0" type="line"/>
      <point x="595" y="62" type="line"/>
      <point x="191" y="62" type="line"/>
    </contour>
    <contour>
      <point x="468" y="0" type="line"/>
      <point x="468" y="0"/>
      <point x="652" y="0"/>
      <point x="652" y="0" type="curve"/>
      <point x="676" y="283" type="line"/>
    </contour>
    <contour>
      <point x="129" y="32" type="line"/>
      <point x="269" y="32" type="line"/>
      <point x="269" y="698" type="line"/>
      <point x="129" y="698" type="line"/>
    </contour>
    <contour>
      <point x="25" y="0" type="line"/>
      <point x="203" y="0" type="line"/>
      <point x="203" y="0"/>
      <point x="203" y="138"/>
      <point x="203" y="138" type="curve"/>
    </contour>
    <contour>
      <point x="203" y="580" type="line"/>
      <point x="203" y="580"/>
      <point x="203" y="718"/>
      <point x="203" y="718" type="curve"/>
      <point x="25" y="718" type="line"/>
    </contour>
    <contour>
      <point x="377" y="718" type="line"/>
      <point x="199" y="718" type="line"/>
      <point x="199" y="718"/>
      <point x="199" y="580"/>
      <point x="199" y="580" type="curve"/>
    </contour>
  </outline>
</glyph>
<glyph name="M" format="1">
  <advance width="1025"/>
  <unicode hex="004D"/>
  <outline>
    <contour>
      <point x="179" y="36" type="line"/>
      <point x="179" y="653" type="line"/>
      <point x="117" y="653" type="line"/>
      <point x="117" y="36" type="line"/>
    </contour>
    <contour>
      <point x="15" y="0" type="line"/>
      <point x="161" y="0" type="line"/>
      <point x="161" y="113" type="line"/>
    </contour>
    <contour>
      <point x="139" y="112" type="line"/>
      <point x="139" y="0" type="line"/>
      <point x="283" y="0" type="line"/>
    </contour>
    <contour>
      <point x="178" y="586" type="line"/>
      <point x="178" y="718" type="line"/>
      <point x="16" y="718" type="line"/>
    </contour>
    <contour>
      <point x="751" y="32" type="line"/>
      <point x="891" y="32" type="line"/>
      <point x="891" y="718" type="line"/>
      <point x="751" y="718" type="line"/>
    </contour>
    <contour>
      <point x="647" y="0" type="line"/>
      <point x="825" y="0" type="line"/>
      <point x="825" y="0"/>
      <point x="825" y="138"/>
      <point x="825" y="138" type="curve"/>
    </contour>
    <contour>
      <point x="822" y="138" type="line"/>
      <point x="822" y="138"/>
      <point x="822" y="0"/>
      <point x="822" y="0" type="curve"/>
      <point x="1000" y="0" type="line"/>
    </contour>
    <contour>
      <point x="256" y="718" type="line"/>
      <point x="166" y="718" type="line"/>
      <point x="166" y="600" type="line"/>
      <point x="463" y="-12" type="line"/>
      <point x="499" y="61" type="line"/>
      <point x="535" y="139" type="line"/>
    </contour>
    <contour>
      <point x="430" y="61" type="line"/>
      <point x="498" y="61" type="line"/>
      <point x="813" y="718" type="line"/>
      <point x="751" y="718" type="line"/>
    </contour>
    <contour>
      <point x="998" y="718" type="line"/>
      <point x="834" y="718" type="line"/>
      <point x="834" y="586" type="line"/>
    </contour>
  </outline>
</glyph>
<glyph name="P" format="1">
  <advance width="653"/>
  <unicode hex="0050"/>
  <outline>
    <contour>
      <point x="129" y="32" type="line"/>
      <point x="269" y="32" type="line"/>
      <point x="269" y="698" type="line"/>
      <point x="129" y="698" type="line"/>
    </contour>
    <contour>
      <point x="197" y="718" type="line"/>
      <point x="197" y="718"/>
      <point x="197" y="667"/>
      <point x="197" y="667" type="curve"/>
      <point x="291" y="667" type="line" smooth="yes"/>
      <point x="353" y="667"/>
      <point x="400" y="668"/>
      <point x="437" y="648" type="curve"/>
      <point x="476" y="625"/>
      <point x="497" y="571"/>
      <point x="497" y="506" type="curve" smooth="yes"/>
      <point x="497" y="340"/>
      <point x="371" y="343"/>
      <point x="255" y="343" type="curve"/>
      <point x="255" y="299" type="line"/>
      <point x="255" y="299"/>
      <point x="276" y="293"/>
      <point x="388" y="293" type="curve" smooth="yes"/>
      <point x="552" y="293"/>
      <point x="646" y="401"/>
      <point x="646" y="521" type="curve" smooth="yes"/>
      <point x="646" y="625"/>
      <point x="557" y="719"/>
      <point x="409" y="719" type="curve" smooth="yes"/>
      <point x="318" y="719"/>
      <point x="207" y="718"/>
      <point x="207" y="718" type="curve"/>
    </contour>
    <contour>
      <point x="25" y="0" type="line"/>
      <point x="203" y="0" type="line"/>
      <point x="203" y="0"/>
      <point x="203" y="138"/>
      <point x="203" y="138" type="curve"/>
    </contour>
    <contour>
      <point x="200" y="138" type="line"/>
      <point x="200" y="138"/>
      <point x="200" y="0"/>
      <point x="200" y="0" type="curve"/>
      <point x="378" y="0" type="line"/>
    </contour>
    <contour>
      <point x="203" y="580" type="line"/>
      <point x="203" y="580"/>
      <point x="203" y="718"/>
      <point x="203" y="718" type="curve"/>
      <point x="25" y="718" type="line"/>
    </contour>
  </outline>
</glyph>
<glyph name="Q" format="1">
  <advance width="831"/>
  <unicode hex="0051"/>
  <outline>
    <contour>
      <point x="606" y="60" type="line"/>
      <point x="735" y="-228" type="line"/>
      <point x="614" y="-199"/>
      <point x="564" y="-117"/>
      <point x="455" y="-10" type="curve"/>
    </contour>
    <contour>
      <point x="780" y="359" type="curve" smooth="yes"/>
      <point x="781" y="126"/>
      <point x="637" y="-19"/>
      <point x="415" y="-23" type="curve"/>
      <point x="194" y="-20"/>
      <point x="50" y="124"/>
      <point x="50" y="357" type="curve" smooth="yes"/>
      <point x="50" y="583"/>
      <point x="197" y="739"/>
      <point x="415" y="739" type="curve" smooth="yes"/>
      <point x="645" y="739"/>
      <point x="779" y="573"/>
    </contour>
    <contour>
      <point x="415" y="680" type="curve" smooth="yes"/>
      <point x="265" y="681"/>
      <point x="207" y="520"/>
      <point x="207" y="358" type="curve" smooth="yes"/>
      <point x="207" y="195"/>
      <point x="264" y="36"/>
      <point x="415" y="36" type="curve" smooth="yes"/>
      <point x="565" y="36"/>
      <point x="623" y="196"/>
      <point x="623" y="358" type="curve" smooth="yes"/>
      <point x="623" y="519"/>
      <point x="565" y="679"/>
    </contour>
  </outline>
</glyph>
<glyph name="R" format="1">
  <advance width="739"/>
  <unicode hex="0052"/>
  <outline>
    <contour>
      <point x="129" y="32" type="line"/>
      <point x="269" y="32" type="line"/>
      <point x="269" y="698" type="line"/>
      <point x="129" y="698" type="line"/>
    </contour>
    <contour>
      <point x="197" y="718" type="line"/>
      <point x="197" y="718"/>
      <point x="197" y="667"/>
      <point x="197" y="667" type="curve"/>
      <point x="297" y="667" type="line"/>
      <point x="359" y="667"/>
      <point x="406" y="668"/>
      <point x="443" y="648" type="curve" smooth="yes"/>
      <point x="482" y="629"/>
      <point x="503" y="581"/>
      <point x="503" y="526" type="curve" smooth="yes"/>
      <point x="503" y="380"/>
      <point x="377" y="383"/>
      <point x="261" y="383" type="curve"/>
      <point x="261" y="339" type="line"/>
      <point x="454" y="343" type="line"/>
      <point x="612" y="381"/>
      <point x="652" y="459"/>
      <point x="652" y="541" type="curve" smooth="yes"/>
      <point x="652" y="635"/>
      <point x="575" y="719"/>
      <point x="445" y="719" type="curve" smooth="yes"/>
      <point x="339" y="719"/>
      <point x="207" y="718"/>
      <point x="207" y="718" type="curve"/>
    </contour>
    <contour>
      <point x="285" y="343" type="line"/>
      <point x="394" y="236"/>
      <point x="579" y="-45"/>
      <point x="754" y="-46" type="curve"/>
      <point x="454" y="366" type="line"/>
    </contour>
    <contour>
      <point x="25" y="0" type="line"/>
      <point x="203" y="0" type="line"/>
      <point x="203" y="0"/>
      <point x="203" y="138"/>
      <point x="203" y="138" type="curve"/>
    </contour>
    <contour>
      <point x="200" y="138" type="line"/>
      <point x="200" y="138"/>
      <point x="200" y="0"/>
      <point x="200" y="0" type="curve"/>
      <point x="378" y="0" type="line"/>
    </contour>
    <contour>
      <point x="203" y="580" type="line"/>
      <point x="203" y="580"/>
      <point x="203" y="718"/>
      <point x="203" y="718" type="curve"/>
      <point x="25" y="718" type="line"/>
    </contour>
  </outline>
</glyph>
<glyph name="U" format="1">
  <advance width="805"/>
  <unicode hex="0055"/>
  <outline>
    <contour>
      <point x="114" y="286" type="line"/>
      <point x="114" y="105"/>
      <point x="180" y="-26"/>
      <point x="413" y="-26" type="curve" smooth="yes"/>
      <point x="645" y="-26"/>
      <point x="701" y="144"/>
      <point x="701" y="310" type="curve"/>
      <point x="701" y="666" type="line"/>
      <point x="701" y="666"/>
      <point x="627" y="666"/>
      <point x="627" y="666" type="curve"/>
      <point x="628" y="320" type="line"/>
      <point x="628" y="124"/>
      <point x="557" y="52"/>
      <point x="443" y="52" type="curve" smooth="yes"/>
      <point x="297" y="52"/>
      <point x="264" y="147"/>
      <point x="264" y="265" type="curve"/>
      <point x="264" y="698" type="line"/>
      <point x="114" y="698" type="line"/>
    </contour>
    <contour>
      <point x="188" y="580" type="line"/>
      <point x="188" y="580"/>
      <point x="188" y="718"/>
      <point x="188" y="718" type="curve"/>
      <point x="10" y="718" type="line"/>
    </contour>
    <contour>
      <point x="363" y="718" type="line"/>
      <point x="185" y="718" type="line"/>
      <point x="185" y="718"/>
      <point x="185" y="580"/>
      <point x="185" y="580" type="curve"/>
    </contour>
    <contour>
      <point x="798" y="718" type="line"/>
      <point x="652" y="718" type="line"/>
      <point x="652" y="605" type="line"/>
    </contour>
    <contour>
      <point x="674" y="606" type="line"/>
      <point x="674" y="718" type="line"/>
      <point x="530" y="718" type="line"/>
    </contour>
  </outline>
</glyph>
<glyph name="Y" format="1">
  <advance width="734"/>
  <unicode hex="0059"/>
  <outline>
    <contour>
      <point x="353" y="718" type="line"/>
      <point x="175" y="718" type="line"/>
      <point x="175" y="718"/>
      <point x="175" y="580"/>
      <point x="175" y="580" type="curve"/>
    </contour>
    <contour>
      <point x="178" y="580" type="line"/>
      <point x="178" y="580"/>
      <point x="178" y="718"/>
      <point x="178" y="718" type="curve"/>
      <point x="0" y="718" type="line"/>
    </contour>
    <contour>
      <point x="418" y="234" type="line"/>
      <point x="676" y="667" type="line"/>
      <point x="606" y="667" type="line"/>
      <point x="384" y="277" type="line"/>
    </contour>
    <contour>
      <point x="757" y="718" type="line"/>
      <point x="611" y="718" type="line"/>
      <point x="611" y="605" type="line"/>
    </contour>
    <contour>
      <point x="627" y="611" type="line"/>
      <point x="633" y="718" type="line"/>
      <point x="489" y="718" type="line"/>
    </contour>
    <contour>
      <point x="315" y="260" type="line"/>
      <point x="440" y="322" type="line"/>
      <point x="239" y="686" type="line"/>
      <point x="81" y="686" type="line"/>
    </contour>
    <contour>
      <point x="309" y="32" type="line"/>
      <point x="449" y="32" type="line"/>
      <point x="449" y="348" type="line"/>
      <point x="309" y="348" type="line"/>
    </contour>
    <contour>
      <point x="205" y="0" type="line"/>
      <point x="383" y="0" type="line"/>
      <point x="383" y="0"/>
      <point x="383" y="138"/>
      <point x="383" y="138" type="curve"/>
    </contour>
    <contour>
      <point x="380" y="138" type="line"/>
      <point x="380" y="138"/>
      <point x="380" y="0"/>
      <point x="380" y="0" type="curve"/>
      <point x="558" y="0" type="line"/>
    </contour>
  </outline>
</glyph>
<glyph name="c" format="1">
  <advance width="515"/>
  <unicode hex="0063"/>
  <outline>
    <contour>
      <point x="279" y="-10" type="curve" smooth="yes"/>
      <point x="135" y="-10"/>
      <point x="40" y="91"/>
      <point x="40" y="224" type="curve" smooth="yes"/>
      <point x="40" y="384"/>
      <point x="149" y="489"/>
      <point x="301" y="489" type="curve" smooth="yes"/>
      <point x="395" y="489"/>
      <point x="470" y="430"/>
      <point x="470" y="349" type="curve" smooth="yes"/>
      <point x="470" y="309"/>
      <point x="444" y="272"/>
      <point x="398" y="272" type="curve" smooth="yes"/>
      <point x="361" y="272"/>
      <point x="327" y="295"/>
      <point x="327" y="345" type="curve" smooth="yes"/>
      <point x="327" y="385"/>
      <point x="350" y="442"/>
      <point x="290" y="442" type="curve" smooth="yes"/>
      <point x="215" y="442"/>
      <point x="153" y="376"/>
      <point x="153" y="280" type="curve" smooth="yes"/>
      <point x="153" y="158"/>
      <point x="223" y="91"/>
      <point x="320" y="91" type="curve" smooth="yes"/>
      <point x="382" y="91"/>
      <point x="452" y="119"/>
      <point x="485" y="185" type="curve"/>
      <point x="485" y="72"/>
      <point x="379" y="-10"/>
    </contour>
  </outline>
</glyph>
<glyph name="d" format="1">
  <advance width="619"/>
  <unicode hex="0064"/>
  <outline>
    <contour>
      <point x="527" y="750" type="line"/>
      <point x="407" y="669" type="line"/>
      <point x="407" y="86" type="line"/>
      <point x="437" y="-23" type="line"/>
      <point x="527" y="22" type="line"/>
    </contour>
    <contour>
      <point x="259" y="-13" type="curve" smooth="yes"/>
      <point x="336" y="-13"/>
      <point x="429" y="30"/>
      <point x="438" y="137" type="curve"/>
      <point x="408" y="80"/>
      <point x="354" y="76"/>
      <point x="326" y="76" type="curve" smooth="yes"/>
      <point x="237" y="76"/>
      <point x="165" y="140"/>
      <point x="165" y="275" type="curve" smooth="yes"/>
      <point x="165" y="366"/>
      <point x="216" y="437"/>
      <point x="297" y="437" type="curve" smooth="yes"/>
      <point x="368" y="437"/>
      <point x="408" y="393"/>
      <point x="408" y="298" type="curve"/>
      <point x="516" y="278" type="line"/>
      <point x="516" y="451"/>
      <point x="400" y="487"/>
      <point x="318" y="487" type="curve" smooth="yes"/>
      <point x="154" y="487"/>
      <point x="41" y="363"/>
      <point x="41" y="229" type="curve" smooth="yes"/>
      <point x="41" y="63"/>
      <point x="152" y="-13"/>
    </contour>
    <contour>
      <point x="473" y="146" type="line"/>
      <point x="473" y="146"/>
      <point x="473" y="-5"/>
      <point x="473" y="-5" type="curve"/>
      <point x="599" y="58" type="line"/>
    </contour>
    <contour>
      <point x="491" y="547" type="line"/>
      <point x="491" y="547"/>
      <point x="491" y="726"/>
      <point x="491" y="726" type="curve"/>
      <point x="335" y="622" type="line"/>
    </contour>
  </outline>
</glyph>
<glyph name="f" format="1">
  <advance width="347"/>
  <unicode hex="0066"/>
  <outline>
    <contour>
      <point x="101" y="0" type="line"/>
      <point x="221" y="0" type="line"/>
      <point x="221" y="440" type="line"/>
      <point x="101" y="440" type="line"/>
    </contour>
    <contour>
      <point x="29" y="0" type="line"/>
      <point x="155" y="0" type="line"/>
      <point x="155" y="0"/>
      <point x="155" y="123"/>
      <point x="155" y="123" type="curve"/>
    </contour>
    <contour>
      <point x="163" y="123" type="line"/>
      <point x="163" y="123"/>
      <point x="163" y="0"/>
      <point x="163" y="0" type="curve"/>
      <point x="299" y="0" type="line"/>
    </contour>
    <contour>
      <point x="340" y="415" type="line"/>
      <point x="340" y="479" type="line"/>
      <point x="24" y="479" type="line"/>
      <point x="24" y="415" type="line"/>
    </contour>
    <contour>
      <point x="257" y="473" type="line"/>
      <point x="183" y="478"/>
      <point x="127" y="555"/>
      <point x="127" y="595" type="curve" smooth="yes"/>
      <point x="127" y="629"/>
      <point x="145" y="649"/>
      <point x="181" y="649" type="curve" smooth="yes"/>
      <point x="213" y="649"/>
      <point x="251" y="598"/>
      <point x="264" y="546" type="curve"/>
      <point x="352" y="651" type="line"/>
      <point x="313" y="731"/>
      <point x="246" y="754"/>
      <point x="200" y="754" type="curve" smooth="yes"/>
      <point x="120" y="754"/>
      <point x="56" y="701"/>
      <point x="56" y="605" type="curve" smooth="yes"/>
      <point x="56" y="549"/>
      <point x="84" y="500"/>
      <point x="108" y="471" type="curve"/>
    </contour>
  </outline>
</glyph>
<glyph name="g" format="1">
  <advance width="529"/>
  <unicode hex="0067"/>
  <outline>
    <contour>
      <point x="257" y="-5" type="line"/>
      <point x="189" y="-12"/>
      <point x="131" y="-62"/>
      <point x="130" y="-95" type="curve" smooth="yes"/>
      <point x="128" y="-149"/>
      <point x="192" y="-192"/>
      <point x="264" y="-192" type="curve" smooth="yes"/>
      <point x="341" y="-192"/>
      <point x="397" y="-159"/>
      <point x="397" y="-114" type="curve" smooth="yes"/>
      <point x="397" y="-72"/>
      <point x="351" y="-48"/>
      <point x="315" y="-31" type="curve" smooth="yes"/>
      <point x="261" y="-6"/>
      <point x="130" y="42"/>
      <point x="104" y="54" type="curve"/>
      <point x="104" y="86" type="line"/>
      <point x="201" y="131" type="line"/>
      <point x="286" y="98"/>
      <point x="378" y="64"/>
      <point x="431" y="37" type="curve" smooth="yes"/>
      <point x="488" y="8"/>
      <point x="504" y="-27"/>
      <point x="504" y="-69" type="curve" smooth="yes"/>
      <point x="504" y="-154"/>
      <point x="396" y="-234"/>
      <point x="247" y="-234" type="curve" smooth="yes"/>
      <point x="126" y="-234"/>
      <point x="20" y="-192"/>
      <point x="20" y="-111" type="curve" smooth="yes"/>
      <point x="20" y="-31"/>
      <point x="138" y="6"/>
      <point x="214" y="16" type="curve"/>
    </contour>
    <contour>
      <point x="268" y="179" type="line"/>
      <point x="268" y="179"/>
      <point x="316" y="170"/>
      <point x="316" y="170" type="curve"/>
      <point x="316" y="170"/>
      <point x="204" y="100"/>
      <point x="204" y="100" type="curve"/>
      <point x="204" y="100"/>
      <point x="169" y="116"/>
      <point x="169" y="116" type="curve"/>
    </contour>
    <contour>
      <point x="302" y="465" type="line"/>
      <point x="266" y="506"/>
      <point x="255" y="580"/>
      <point x="255" y="612" type="curve" smooth="yes"/>
      <point x="255" y="668"/>
      <point x="289" y="707"/>
      <point x="335" y="707" type="curve"/>
      <point x="295" y="595" type="line"/>
      <point x="295" y="570"/>
      <point x="298" y="544"/>
      <point x="307" y="518" type="curve" smooth="yes"/>
      <point x="317" y="490"/>
      <point x="338" y="465"/>
      <point x="338" y="465" type="curve"/>
    </contour>
    <contour>
      <point x="261" y="633" type="curve" smooth="yes"/>
      <point x="261" y="675"/>
      <point x="294" y="708"/>
      <point x="336" y="708" type="curve" smooth="yes"/>
      <point x="378" y="708"/>
      <point x="411" y="675"/>
      <point x="411" y="633" type="curve" smooth="yes"/>
      <point x="411" y="591"/>
      <point x="378" y="558"/>
      <point x="336" y="558" type="curve" smooth="yes"/>
      <point x="294" y="558"/>
      <point x="261" y="591"/>
    </contour>
    <contour>
      <point x="53" y="321" type="curve" smooth="yes"/>
      <point x="53" y="423"/>
      <point x="150" y="489"/>
      <point x="278" y="489" type="curve" smooth="yes"/>
      <point x="405" y="489"/>
      <point x="484" y="423"/>
      <point x="484" y="321" type="curve" smooth="yes"/>
      <point x="484" y="218"/>
      <point x="396" y="153"/>
      <point x="268" y="153" type="curve" smooth="yes"/>
      <point x="141" y="153"/>
      <point x="53" y="218"/>
    </contour>
    <contour>
      <point x="184" y="321" type="curve" smooth="yes"/>
      <point x="184" y="243"/>
      <point x="209" y="196"/>
      <point x="269" y="196" type="curve" smooth="yes"/>
      <point x="329" y="196"/>
      <point x="354" y="243"/>
      <point x="354" y="321" type="curve" smooth="yes"/>
      <point x="354" y="400"/>
      <point x="329" y="447"/>
      <point x="269" y="447" type="curve" smooth="yes"/>
      <point x="209" y="447"/>
      <point x="184" y="400"/>
    </contour>
  </outline>
</glyph>
<glyph name="h" format="1">
  <advance width="605"/>
  <unicode hex="0068"/>
  <outline>
    <contour>
      <point x="15" y="0" type="line"/>
      <point x="141" y="0" type="line"/>
      <point x="141" y="0"/>
      <point x="141" y="123"/>
      <point x="141" y="123" type="curve"/>
    </contour>
    <contour>
      <point x="149" y="123" type="line"/>
      <point x="149" y="123"/>
      <point x="149" y="0"/>
      <point x="149" y="0" type="curve"/>
      <point x="285" y="0" type="line"/>
    </contour>
    <contour>
      <point x="326" y="0" type="line"/>
      <point x="452" y="0" type="line"/>
      <point x="452" y="0"/>
      <point x="452" y="123"/>
      <point x="452" y="123" type="curve"/>
    </contour>
    <contour>
      <point x="460" y="123" type="line"/>
      <point x="460" y="123"/>
      <point x="460" y="0"/>
      <point x="460" y="0" type="curve"/>
      <point x="596" y="0" type="line"/>
    </contour>
    <contour>
      <point x="88" y="0" type="line"/>
      <point x="207" y="0" type="line"/>
      <point x="208" y="750" type="line"/>
      <point x="88" y="670" type="line"/>
    </contour>
    <contour>
      <point x="172" y="547" type="line"/>
      <point x="172" y="547"/>
      <point x="172" y="726"/>
      <point x="172" y="726" type="curve"/>
      <point x="16" y="622" type="line"/>
    </contour>
    <contour>
      <point x="306" y="417" type="curve" smooth="yes"/>
      <point x="342" y="417"/>
      <point x="367" y="406"/>
      <point x="381" y="384" type="curve" smooth="yes"/>
      <point x="396" y="361"/>
      <point x="399" y="338"/>
      <point x="399" y="285" type="curve" smooth="yes"/>
      <point x="398" y="0" type="line"/>
      <point x="518" y="0" type="line"/>
      <point x="519" y="315" type="line" smooth="yes"/>
      <point x="519" y="429"/>
      <point x="452" y="489"/>
      <point x="357" y="489" type="curve" smooth="yes"/>
      <point x="263" y="489"/>
      <point x="214" y="443"/>
      <point x="182" y="368" type="curve"/>
      <point x="205" y="319" type="line"/>
      <point x="205" y="319"/>
      <point x="210" y="417"/>
    </contour>
  </outline>
</glyph>
<glyph name="i" format="1">
  <advance width="305"/>
  <unicode hex="0069"/>
  <outline>
    <contour>
      <point x="96" y="0" type="line"/>
      <point x="216" y="0" type="line"/>
      <point x="216" y="509" type="line"/>
      <point x="96" y="436" type="line"/>
    </contour>
    <contour>
      <point x="24" y="0" type="line"/>
      <point x="150" y="0" type="line"/>
      <point x="150" y="0"/>
      <point x="150" y="123"/>
      <point x="150" y="123" type="curve"/>
    </contour>
    <contour>
      <point x="158" y="123" type="line"/>
      <point x="158" y="123"/>
      <point x="158" y="0"/>
      <point x="158" y="0" type="curve"/>
      <point x="293" y="0" type="line"/>
    </contour>
    <contour>
      <point x="155" y="326" type="line"/>
      <point x="155" y="326"/>
      <point x="155" y="472"/>
      <point x="155" y="472" type="curve"/>
      <point x="24" y="392" type="line"/>
    </contour>
    <contour>
      <point x="86" y="640" type="curve" smooth="yes"/>
      <point x="86" y="598"/>
      <point x="120" y="564"/>
      <point x="162" y="564" type="curve" smooth="yes"/>
      <point x="203" y="564"/>
      <point x="238" y="598"/>
      <point x="238" y="640" type="curve" smooth="yes"/>
      <point x="238" y="681"/>
      <point x="203" y="716"/>
      <point x="162" y="716" type="curve" smooth="yes"/>
      <point x="120" y="716"/>
      <point x="86" y="681"/>
    </contour>
  </outline>
</glyph>
<glyph name="k" format="1">
  <advance width="565"/>
  <unicode hex="006B"/>
  <outline>
    <contour>
      <point x="88" y="0" type="line"/>
      <point x="207" y="0" type="line"/>
      <point x="208" y="750" type="line"/>
      <point x="88" y="670" type="line"/>
    </contour>
    <contour>
      <point x="15" y="0" type="line"/>
      <point x="141" y="0" type="line"/>
      <point x="141" y="0"/>
      <point x="141" y="123"/>
      <point x="141" y="123" type="curve"/>
    </contour>
    <contour>
      <point x="149" y="123" type="line"/>
      <point x="149" y="123"/>
      <point x="149" y="0"/>
      <point x="149" y="0" type="curve"/>
      <point x="285" y="0" type="line"/>
    </contour>
    <contour>
      <point x="417" y="1" type="line"/>
      <point x="572" y="1" type="line"/>
      <point x="314" y="317" type="line"/>
      <point x="220" y="243" type="line"/>
    </contour>
    <contour>
      <point x="559" y="479" type="line"/>
      <point x="431" y="479" type="line"/>
      <point x="431" y="479"/>
      <point x="421" y="373"/>
      <point x="421" y="373" type="curve"/>
    </contour>
    <contour>
      <point x="403" y="379" type="line"/>
      <point x="403" y="379"/>
      <point x="453" y="479"/>
      <point x="453" y="479" type="curve"/>
      <point x="327" y="479" type="line"/>
    </contour>
    <contour>
      <point x="344" y="1" type="line"/>
      <point x="470" y="1" type="line"/>
      <point x="470" y="1"/>
      <point x="470" y="124"/>
      <point x="470" y="124" type="curve"/>
    </contour>
    <contour>
      <point x="478" y="104" type="line"/>
      <point x="478" y="104"/>
      <point x="478" y="1"/>
      <point x="478" y="1" type="curve"/>
      <point x="594" y="1" type="line"/>
    </contour>
    <contour>
      <point x="208" y="262" type="line"/>
      <point x="233" y="223" type="line"/>
      <point x="507" y="439" type="line"/>
      <point x="427" y="439" type="line"/>
    </contour>
    <contour>
      <point x="172" y="547" type="line"/>
      <point x="172" y="547"/>
      <point x="172" y="726"/>
      <point x="172" y="726" type="curve"/>
      <point x="16" y="622" type="line"/>
    </contour>
    <contour>
      <point x="181" y="232" type="line"/>
      <point x="249" y="232" type="line"/>
      <point x="249" y="287" type="line"/>
      <point x="181" y="287" type="line"/>
    </contour>
  </outline>
</glyph>
<glyph name="n" format="1">
  <advance width="614"/>
  <unicode hex="006E"/>
  <outline>
    <contour>
      <point x="315" y="417" type="curve" smooth="yes"/>
      <point x="351" y="417"/>
      <point x="376" y="406"/>
      <point x="390" y="384" type="curve" smooth="yes"/>
      <point x="405" y="361"/>
      <point x="408" y="338"/>
      <point x="408" y="285" type="curve" smooth="yes"/>
      <point x="407" y="0" type="line"/>
      <point x="527" y="0" type="line"/>
      <point x="528" y="315" type="line" smooth="yes"/>
      <point x="528" y="429"/>
      <point x="461" y="489"/>
      <point x="366" y="489" type="curve" smooth="yes"/>
      <point x="272" y="489"/>
      <point x="223" y="443"/>
      <point x="191" y="368" type="curve"/>
      <point x="214" y="319" type="line"/>
      <point x="214" y="319"/>
      <point x="219" y="417"/>
    </contour>
    <contour>
      <point x="96" y="0" type="line"/>
      <point x="216" y="0" type="line"/>
      <point x="216" y="374" type="line"/>
      <point x="186" y="501" type="line"/>
      <point x="96" y="441" type="line"/>
    </contour>
    <contour>
      <point x="24" y="0" type="line"/>
      <point x="150" y="0" type="line"/>
      <point x="150" y="0"/>
      <point x="150" y="123"/>
      <point x="150" y="123" type="curve"/>
    </contour>
    <contour>
      <point x="158" y="123" type="line"/>
      <point x="158" y="123"/>
      <point x="158" y="0"/>
      <point x="158" y="0" type="curve"/>
      <point x="294" y="0" type="line"/>
    </contour>
    <contour>
      <point x="335" y="0" type="line"/>
      <point x="461" y="0" type="line"/>
      <point x="461" y="0"/>
      <point x="461" y="123"/>
      <point x="461" y="123" type="curve"/>
    </contour>
    <contour>
      <point x="469" y="123" type="line"/>
      <point x="469" y="123"/>
      <point x="469" y="0"/>
      <point x="469" y="0" type="curve"/>
      <point x="605" y="0" type="line"/>
    </contour>
    <contour>
      <point x="150" y="316" type="line"/>
      <point x="150" y="316"/>
      <point x="150" y="477"/>
      <point x="150" y="477" type="curve"/>
      <point x="24" y="392" type="line"/>
    </contour>
  </outline>
</glyph>
<glyph name="o" format="1">
  <advance width="584"/>
  <unicode hex="006F"/>
  <outline>
    <contour>
      <point x="544" y="240" type="curve" smooth="yes"/>
      <point x="544" y="85"/>
      <point x="443" y="-7"/>
      <point x="292" y="-10" type="curve"/>
      <point x="141" y="-8"/>
      <point x="40" y="84"/>
      <point x="40" y="238" type="curve" smooth="yes"/>
      <point x="40" y="388"/>
      <point x="143" y="489"/>
      <point x="292" y="489" type="curve" smooth="yes"/>
      <point x="449" y="489"/>
      <point x="543" y="381"/>
    </contour>
    <contour>
      <point x="292" y="442" type="curve" smooth="yes"/>
      <point x="203" y="443"/>
      <point x="179" y="346"/>
      <point x="179" y="239" type="curve" smooth="yes"/>
      <point x="179" y="132"/>
      <point x="203" y="38"/>
      <point x="292" y="38" type="curve" smooth="yes"/>
      <point x="380" y="38"/>
      <point x="405" y="132"/>
      <point x="405" y="239" type="curve" smooth="yes"/>
      <point x="405" y="345"/>
      <point x="380" y="441"/>
    </contour>
  </outline>
</glyph>
<glyph name="p" format="1">
  <advance width="621"/>
  <unicode hex="0070"/>
  <outline>
    <contour>
      <point x="94" y="-225" type="line"/>
      <point x="214" y="-225" type="line"/>
      <point x="214" y="390" type="line"/>
      <point x="184" y="501" type="line"/>
      <point x="94" y="441" type="line"/>
    </contour>
    <contour>
      <point x="22" y="-225" type="line"/>
      <point x="148" y="-225" type="line"/>
      <point x="148" y="-225"/>
      <point x="148" y="-102"/>
      <point x="148" y="-102" type="curve"/>
    </contour>
    <contour>
      <point x="156" y="-102" type="line"/>
      <point x="156" y="-102"/>
      <point x="156" y="-225"/>
      <point x="156" y="-225" type="curve"/>
      <point x="292" y="-225" type="line"/>
    </contour>
    <contour>
      <point x="148" y="316" type="line"/>
      <point x="148" y="316"/>
      <point x="148" y="477"/>
      <point x="148" y="477" type="curve"/>
      <point x="22" y="392" type="line"/>
    </contour>
    <contour>
      <point x="362" y="487" type="curve" smooth="yes"/>
      <point x="285" y="487"/>
      <point x="192" y="444"/>
      <point x="183" y="337" type="curve"/>
      <point x="213" y="394"/>
      <point x="267" y="398"/>
      <point x="295" y="398" type="curve" smooth="yes"/>
      <point x="384" y="398"/>
      <point x="456" y="334"/>
      <point x="456" y="199" type="curve" smooth="yes"/>
      <point x="456" y="108"/>
      <point x="405" y="37"/>
      <point x="324" y="37" type="curve" smooth="yes"/>
      <point x="253" y="37"/>
      <point x="213" y="81"/>
      <point x="213" y="176" type="curve"/>
      <point x="105" y="196" type="line"/>
      <point x="105" y="23"/>
      <point x="221" y="-13"/>
      <point x="303" y="-13" type="curve" smooth="yes"/>
      <point x="467" y="-13"/>
      <point x="580" y="111"/>
      <point x="580" y="245" type="curve" smooth="yes"/>
      <point x="580" y="411"/>
      <point x="469" y="487"/>
    </contour>
  </outline>
</glyph>
<glyph name="s" format="1">
  <advance width="462"/>
  <unicode hex="0073"/>
  <outline>
    <contour>
      <point x="218" y="494" type="curve" smooth="yes"/>
      <point x="130" y="494"/>
      <point x="54" y="441"/>
      <point x="54" y="343" type="curve" smooth="yes"/>
      <point x="54" y="245"/>
      <point x="112" y="205"/>
      <point x="206" y="185" type="curve" smooth="yes"/>
      <point x="253" y="175"/>
      <point x="322" y="163"/>
      <point x="322" y="106" type="curve" smooth="yes"/>
      <point x="322" y="65"/>
      <point x="280" y="45"/>
      <point x="247" y="45" type="curve" smooth="yes"/>
      <point x="211" y="45"/>
      <point x="184" y="49"/>
      <point x="156" y="70" type="curve" smooth="yes"/>
      <point x="111" y="105"/>
      <point x="84" y="156"/>
      <point x="52" y="205" type="curve"/>
      <point x="53" y="-18" type="line"/>
      <point x="53" y="-18"/>
      <point x="148" y="29"/>
      <point x="148" y="29" type="curve"/>
      <point x="148" y="29"/>
      <point x="86" y="48"/>
      <point x="86" y="48" type="curve"/>
      <point x="113" y="26"/>
      <point x="161" y="-10"/>
      <point x="245" y="-10" type="curve" smooth="yes"/>
      <point x="359" y="-10"/>
      <point x="412" y="77"/>
      <point x="412" y="144" type="curve" smooth="yes"/>
      <point x="412" y="258"/>
      <point x="345" y="289"/>
      <point x="241" y="315" type="curve" smooth="yes"/>
      <point x="181" y="330"/>
      <point x="142" y="349"/>
      <point x="142" y="380" type="curve" smooth="yes"/>
      <point x="142" y="419"/>
      <point x="177" y="440"/>
      <point x="225" y="440" type="curve" smooth="yes"/>
      <point x="252" y="440"/>
      <point x="288" y="428"/>
      <point x="311" y="408" type="curve" smooth="yes"/>
      <point x="348" y="379"/>
      <point x="373" y="344"/>
      <point x="395" y="304" type="curve"/>
      <point x="394" y="509" type="line"/>
      <point x="394" y="509"/>
      <point x="308" y="461"/>
      <point x="308" y="461" type="curve"/>
      <point x="308" y="461"/>
      <point x="345" y="444"/>
      <point x="345" y="444" type="curve"/>
      <point x="326" y="466"/>
      <point x="269" y="494"/>
    </contour>
  </outline>
</glyph>
<glyph name="u" format="1">
  <advance width="597"/>
  <unicode hex="0075"/>
  <outline>
    <contour>
      <point x="293" y="63" type="curve" smooth="yes"/>
      <point x="219" y="63"/>
      <point x="201" y="115"/>
      <point x="200" y="199" type="curve"/>
      <point x="201" y="509" type="line"/>
      <point x="81" y="435" type="line"/>
      <point x="80" y="163" type="line" smooth="yes"/>
      <point x="80" y="49"/>
      <point x="145" y="-11"/>
      <point x="240" y="-11" type="curve" smooth="yes"/>
      <point x="334" y="-11"/>
      <point x="378" y="35"/>
      <point x="410" y="110" type="curve"/>
      <point x="387" y="159" type="line"/>
      <point x="387" y="159"/>
      <point x="389" y="63"/>
    </contour>
    <contour>
      <point x="505" y="509" type="line"/>
      <point x="385" y="435" type="line"/>
      <point x="385" y="104" type="line"/>
      <point x="415" y="-23" type="line"/>
      <point x="505" y="22" type="line"/>
    </contour>
    <contour>
      <point x="444" y="326" type="line"/>
      <point x="444" y="326"/>
      <point x="444" y="472"/>
      <point x="444" y="472" type="curve"/>
      <point x="313" y="392" type="line"/>
    </contour>
    <contour>
      <point x="140" y="326" type="line"/>
      <point x="140" y="326"/>
      <point x="140" y="472"/>
      <point x="140" y="472" type="curve"/>
      <point x="9" y="392" type="line"/>
    </contour>
    <contour>
      <point x="451" y="146" type="line"/>
      <point x="451" y="146"/>
      <point x="451" y="-5"/>
      <point x="451" y="-5" type="curve"/>
      <point x="577" y="58" type="line"/>
    </contour>
  </outline>
</glyph>
<glyph name="v" format="1">
  <advance width="523"/>
  <unicode hex="0076"/>
  <outline>
    <contour>
      <point x="158" y="479" type="line"/>
      <point x="18" y="479" type="line"/>
      <point x="258" y="-43" type="line"/>
      <point x="321" y="95" type="line"/>
    </contour>
    <contour>
      <point x="572" y="479" type="line"/>
      <point x="446" y="479" type="line"/>
      <point x="446" y="479"/>
      <point x="446" y="386"/>
      <point x="446" y="386" type="curve"/>
    </contour>
    <contour>
      <point x="438" y="376" type="line"/>
      <point x="438" y="376"/>
      <point x="438" y="479"/>
      <point x="438" y="479" type="curve"/>
      <point x="342" y="479" type="line"/>
    </contour>
    <contour>
      <point x="251" y="479" type="line"/>
      <point x="95" y="479" type="line"/>
      <point x="95" y="479"/>
      <point x="125" y="376"/>
      <point x="125" y="376" type="curve"/>
    </contour>
    <contour>
      <point x="87" y="376" type="line"/>
      <point x="87" y="376"/>
      <point x="87" y="479"/>
      <point x="87" y="479" type="curve"/>
      <point x="-49" y="479" type="line"/>
    </contour>
    <contour>
      <point x="262" y="74" type="line"/>
      <point x="279" y="1" type="line"/>
      <point x="499" y="479" type="line"/>
      <point x="439" y="479" type="line"/>
    </contour>
  </outline>
</glyph>
<glyph name="w" format="1">
  <advance width="798"/>
  <unicode hex="0077"/>
  <outline>
    <contour>
      <point x="152" y="479" type="line"/>
      <point x="22" y="479" type="line"/>
      <point x="237" y="-44" type="line"/>
      <point x="295" y="96" type="line"/>
    </contour>
    <contour>
      <point x="397" y="376" type="line"/>
      <point x="397" y="376"/>
      <point x="397" y="479"/>
      <point x="397" y="479" type="curve"/>
      <point x="309" y="479" type="line"/>
    </contour>
    <contour>
      <point x="236" y="479" type="line"/>
      <point x="93" y="479" type="line"/>
      <point x="93" y="479"/>
      <point x="120" y="376"/>
      <point x="120" y="376" type="curve"/>
    </contour>
    <contour>
      <point x="85" y="376" type="line"/>
      <point x="85" y="376"/>
      <point x="85" y="479"/>
      <point x="85" y="479" type="curve"/>
      <point x="-39" y="479" type="line"/>
    </contour>
    <contour>
      <point x="236" y="73" type="line"/>
      <point x="255" y="0" type="line"/>
      <point x="453" y="479" type="line"/>
      <point x="393" y="479" type="line"/>
    </contour>
    <contour>
      <point x="470" y="479" type="line"/>
      <point x="340" y="479" type="line"/>
      <point x="555" y="-44" type="line"/>
      <point x="612" y="94" type="line"/>
    </contour>
    <contour>
      <point x="837" y="479" type="line"/>
      <point x="722" y="479" type="line"/>
      <point x="722" y="479"/>
      <point x="722" y="386"/>
      <point x="722" y="386" type="curve"/>
    </contour>
    <contour>
      <point x="714" y="376" type="line"/>
      <point x="714" y="376"/>
      <point x="714" y="479"/>
      <point x="714" y="479" type="curve"/>
      <point x="626" y="479" type="line"/>
    </contour>
    <contour>
      <point x="553" y="479" type="line"/>
      <point x="410" y="479" type="line"/>
      <point x="410" y="479"/>
      <point x="438" y="376"/>
      <point x="438" y="376" type="curve"/>
    </contour>
    <contour>
      <point x="553" y="73" type="line"/>
      <point x="573" y="0" type="line"/>
      <point x="770" y="479" type="line"/>
      <point x="710" y="479" type="line"/>
    </contour>
  </outline>
</glyph>
<glyph name="y" format="1">
  <advance width="526"/>
  <unicode hex="0079"/>
  <outline>
    <contour>
      <point x="148" y="479" type="line"/>
      <point x="18" y="479" type="line"/>
      <point x="258" y="-43" type="line"/>
      <point x="321" y="95" type="line"/>
    </contour>
    <contour>
      <point x="572" y="479" type="line"/>
      <point x="446" y="479" type="line"/>
      <point x="446" y="479"/>
      <point x="446" y="386"/>
      <point x="446" y="386" type="curve"/>
    </contour>
    <contour>
      <point x="438" y="376" type="line"/>
      <point x="438" y="376"/>
      <point x="438" y="479"/>
      <point x="438" y="479" type="curve"/>
      <point x="342" y="479" type="line"/>
    </contour>
    <contour>
      <point x="251" y="479" type="line"/>
      <point x="95" y="479" type="line"/>
      <point x="95" y="479"/>
      <point x="125" y="376"/>
      <point x="125" y="376" type="curve"/>
    </contour>
    <contour>
      <point x="87" y="376" type="line"/>
      <point x="87" y="376"/>
      <point x="87" y="479"/>
      <point x="87" y="479" type="curve"/>
      <point x="-49" y="479" type="line"/>
    </contour>
    <contour>
      <point x="207" y="-40" type="line"/>
      <point x="254" y="-71" type="line"/>
      <point x="499" y="479" type="line"/>
      <point x="439" y="479" type="line"/>
    </contour>
    <contour>
      <point x="208" y="-39" type="line"/>
      <point x="196" y="-60"/>
      <point x="170" y="-122"/>
      <point x="127" y="-122" type="curve"/>
      <point x="95" y="-122"/>
      <point x="56" y="-102"/>
      <point x="66" y="-28" type="curve"/>
      <point x="-46" y="-157" type="line"/>
      <point x="-20" y="-210"/>
      <point x="19" y="-237"/>
      <point x="86" y="-237" type="curve" smooth="yes"/>
      <point x="169" y="-237"/>
      <point x="217" y="-159"/>
      <point x="254" y="-71" type="curve"/>
    </contour>
  </outline>
</glyph>
<glyph name="dieresis" format="1">
  <advance width="833"/>
  <unicode hex="00A8"/>
  <outline>
    <contour>
      <point x="139" y="644" type="curve" smooth="yes"/>
      <point x="139" y="610"/>
      <point x="166" y="583"/>
      <point x="200" y="583" type="curve" smooth="yes"/>
      <point x="234" y="583"/>
      <point x="262" y="610"/>
      <point x="262" y="644" type="curve" smooth="yes"/>
      <point x="262" y="678"/>
      <point x="234" y="706"/>
      <point x="200" y="706" type="curve" smooth="yes"/>
      <point x="166" y="706"/>
      <point x="139" y="678"/>
    </contour>
    <contour>
      <point x="320" y="644" type="curve" smooth="yes"/>
      <point x="320" y="610"/>
      <point x="347" y="583"/>
      <point x="381" y="583" type="curve" smooth="yes"/>
      <point x="415" y="583"/>
      <point x="443" y="610"/>
      <point x="443" y="644" type="curve" smooth="yes"/>
      <point x="443" y="678"/>
      <point x="415" y="706"/>
      <point x="381" y="706" type="curve" smooth="yes"/>
      <point x="347" y="706"/>
      <point x="320" y="678"/>
    </contour>
  </outline>
</glyph>
<glyph name="guillemotleft" format="1">
  <advance width="479"/>
  <unicode hex="00AB"/>
  <outline>
    <contour>
      <point x="203" y="419" type="line"/>
      <point x="203" y="419"/>
      <point x="26" y="236"/>
      <point x="26" y="236" type="curve"/>
      <point x="26" y="236"/>
      <point x="205" y="52"/>
      <point x="205" y="52" type="curve"/>
      <point x="205" y="52"/>
      <point x="244" y="52"/>
      <point x="244" y="52" type="curve"/>
      <point x="244" y="52"/>
      <point x="146" y="236"/>
      <point x="146" y="236" type="curve"/>
      <point x="244" y="419" type="line"/>
    </contour>
    <contour>
      <point x="399" y="419" type="line"/>
      <point x="399" y="419"/>
      <point x="221" y="236"/>
      <point x="221" y="236" type="curve"/>
      <point x="221" y="236"/>
      <point x="400" y="52"/>
      <point x="400" y="52" type="curve"/>
      <point x="400" y="52"/>
      <point x="439" y="52"/>
      <point x="439" y="52" type="curve"/>
      <point x="439" y="52"/>
      <point x="341" y="236"/>
      <point x="341" y="236" type="curve"/>
      <point x="439" y="419" type="line"/>
    </contour>
  </outline>
</glyph>
<glyph name="acute" format="1">
  <advance width="833"/>
  <unicode hex="00B4"/>
  <outline>
    <contour>
      <point x="341" y="723" type="line"/>
      <point x="314" y="687"/>
      <point x="246" y="575"/>
      <point x="229" y="550" type="curve"/>
      <point x="246" y="532" type="line"/>
      <point x="465" y="697" type="line"/>
      <point x="451" y="727" type="line"/>
      <point x="344" y="727" type="line"/>
    </contour>
  </outline>
</glyph>
<glyph name="cedilla" format="1">
  <advance width="833"/>
  <unicode hex="00B8"/>
  <outline>
    <contour>
      <point x="153" y="-56" type="line"/>
      <point x="199" y="-68"/>
      <point x="243" y="-106"/>
      <point x="243" y="-154" type="curve" smooth="yes"/>
      <point x="243" y="-238"/>
      <point x="146" y="-266"/>
      <point x="85" y="-266" type="curve" smooth="yes"/>
      <point x="58" y="-266"/>
      <point x="33" y="-259"/>
      <point x="15" y="-241" type="curve"/>
      <point x="61" y="-234"/>
      <point x="143" y="-231"/>
      <point x="143" y="-166" type="curve" smooth="yes"/>
      <point x="143" y="-136"/>
      <point x="116" y="-110"/>
      <point x="72" y="-101" type="curve"/>
      <point x="147" y="0" type="line"/>
      <point x="197" y="0" type="line"/>
    </contour>
  </outline>
</glyph>
<glyph name="AE" format="1">
  <advance width="1029"/>
  <unicode hex="00C6"/>
  <outline>
    <contour>
      <point x="448" y="647" type="line"/>
      <point x="470" y="647" type="line"/>
      <point x="470" y="718" type="line"/>
      <point x="416" y="718" type="line"/>
      <point x="39" y="32" type="line"/>
      <point x="123" y="32" type="line"/>
    </contour>
    <contour>
      <point x="-24" y="0" type="line"/>
      <point x="92" y="0" type="line"/>
      <point x="92" y="113" type="line"/>
    </contour>
    <contour>
      <point x="84" y="104" type="line"/>
      <point x="70" y="0" type="line"/>
      <point x="212" y="0" type="line"/>
    </contour>
    <contour>
      <point x="262" y="324" type="line"/>
      <point x="559" y="324" type="line"/>
      <point x="559" y="381" type="line"/>
      <point x="262" y="381" type="line"/>
    </contour>
    <contour>
      <point x="436" y="661" type="line"/>
      <point x="942" y="661" type="line"/>
      <point x="942" y="718" type="line"/>
      <point x="426" y="718" type="line"/>
    </contour>
    <contour>
      <point x="510" y="0" type="line"/>
      <point x="942" y="0" type="line"/>
      <point x="942" y="62" type="line"/>
      <point x="510" y="62" type="line"/>
    </contour>
    <contour>
      <point x="805" y="0" type="line"/>
      <point x="805" y="0"/>
      <point x="969" y="0"/>
      <point x="969" y="0" type="curve"/>
      <point x="1009" y="289" type="line"/>
    </contour>
    <contour>
      <point x="969" y="459" type="line"/>
      <point x="959" y="718" type="line"/>
      <point x="959" y="718"/>
      <point x="795" y="718"/>
      <point x="795" y="718" type="curve"/>
    </contour>
    <contour>
      <point x="585" y="321" type="line"/>
      <point x="717" y="321" type="line"/>
      <point x="811" y="181" type="line"/>
      <point x="811" y="522" type="line"/>
      <point x="717" y="382" type="line"/>
      <point x="585" y="382" type="line"/>
    </contour>
    <contour>
      <point x="448" y="32" type="line"/>
      <point x="588" y="32" type="line"/>
      <point x="588" y="698" type="line"/>
      <point x="448" y="698" type="line"/>
    </contour>
    <contour>
      <point x="344" y="0" type="line"/>
      <point x="522" y="0" type="line"/>
      <point x="522" y="0"/>
      <point x="522" y="138"/>
      <point x="522" y="138" type="curve"/>
    </contour>
    <contour>
      <point x="423" y="629" type="line"/>
      <point x="423" y="629"/>
      <point x="417" y="718"/>
      <point x="417" y="718" type="curve"/>
      <point x="312" y="718" type="line"/>
    </contour>
  </outline>
</glyph>
<glyph name="ae" format="1">
  <advance width="826"/>
  <unicode hex="00E6"/>
  <outline>
    <contour>
      <point x="275" y="494" type="line"/>
      <point x="365" y="494"/>
      <point x="430" y="454"/>
      <point x="430" y="320" type="curve" smooth="yes"/>
      <point x="430" y="279"/>
      <point x="429" y="267"/>
      <point x="429" y="221" type="curve"/>
      <point x="338" y="232" type="line"/>
      <point x="342" y="334" type="line"/>
      <point x="341" y="407"/>
      <point x="295" y="446"/>
      <point x="241" y="446" type="curve" smooth="yes"/>
      <point x="210" y="446"/>
      <point x="162" y="440"/>
      <point x="147" y="420" type="curve"/>
      <point x="191" y="403"/>
      <point x="203" y="378"/>
      <point x="203" y="344" type="curve" smooth="yes"/>
      <point x="203" y="305"/>
      <point x="169" y="274"/>
      <point x="132" y="274" type="curve" smooth="yes"/>
      <point x="86" y="274"/>
      <point x="62" y="309"/>
      <point x="62" y="355" type="curve" smooth="yes"/>
      <point x="62" y="414"/>
      <point x="152" y="494"/>
      <point x="258" y="494" type="curve" smooth="yes"/>
    </contour>
    <contour>
      <point x="368" y="338" type="line"/>
      <point x="368" y="254"/>
      <point x="302" y="216"/>
      <point x="244" y="194" type="curve"/>
      <point x="188" y="170"/>
      <point x="168" y="147"/>
      <point x="168" y="109" type="curve" smooth="yes"/>
      <point x="168" y="79"/>
      <point x="194" y="61"/>
      <point x="220" y="61" type="curve" smooth="yes"/>
      <point x="270" y="61"/>
      <point x="329" y="86"/>
      <point x="349" y="155" type="curve"/>
      <point x="374" y="152" type="line"/>
      <point x="369" y="61"/>
      <point x="291" y="-14"/>
      <point x="181" y="-14" type="curve" smooth="yes"/>
      <point x="85" y="-14"/>
      <point x="45" y="40"/>
      <point x="45" y="100" type="curve" smooth="yes"/>
      <point x="45" y="170"/>
      <point x="106" y="211"/>
      <point x="170" y="226" type="curve" smooth="yes"/>
      <point x="244" y="243"/>
      <point x="342" y="254"/>
      <point x="341" y="341" type="curve"/>
    </contour>
    <contour>
      <point x="566" y="-10" type="curve" smooth="yes"/>
      <point x="416" y="-10"/>
      <point x="338" y="101"/>
      <point x="338" y="224" type="curve" smooth="yes"/>
      <point x="338" y="384"/>
      <point x="432" y="489"/>
      <point x="578" y="489" type="curve" smooth="yes"/>
      <point x="664" y="489"/>
      <point x="781" y="444"/>
      <point x="781" y="289" type="curve"/>
      <point x="663" y="309" type="line"/>
      <point x="663" y="397"/>
      <point x="645" y="442"/>
      <point x="571" y="442" type="curve" smooth="yes"/>
      <point x="507" y="442"/>
      <point x="462" y="388"/>
      <point x="462" y="301" type="curve" smooth="yes"/>
      <point x="462" y="280"/>
      <point x="461" y="261"/>
      <point x="461" y="235" type="curve" smooth="yes"/>
      <point x="461" y="128"/>
      <point x="534" y="78"/>
      <point x="610" y="78" type="curve" smooth="yes"/>
      <point x="708" y="78"/>
      <point x="738" y="121"/>
      <point x="777" y="184" type="curve"/>
      <point x="777" y="71"/>
      <point x="671" y="-10"/>
    </contour>
    <contour>
      <point x="453" y="309" type="line"/>
      <point x="781" y="309" type="line"/>
      <point x="781" y="259" type="line"/>
      <point x="453" y="259" type="line"/>
    </contour>
  </outline>
</glyph>
<glyph name="quoteright" format="1">
  <advance width="254"/>
  <unicode hex="2019"/>
  <outline>
    <contour>
      <point x="126" y="528" type="curve" smooth="yes"/>
      <point x="126" y="478"/>
      <point x="91" y="438"/>
      <point x="74" y="415" type="curve" smooth="yes"/>
      <point x="69" y="409"/>
      <point x="69" y="401"/>
      <point x="71" y="397" type="curve" smooth="yes"/>
      <point x="73" y="394"/>
      <point x="84" y="391"/>
      <point x="97" y="398" type="curve"/>
      <point x="122" y="414"/>
      <point x="224" y="491"/>
      <point x="224" y="609" type="curve" smooth="yes"/>
      <point x="224" y="678"/>
      <point x="179" y="719"/>
      <point x="135" y="719" type="curve" smooth="yes"/>
      <point x="84" y="719"/>
      <point x="50" y="682"/>
      <point x="50" y="639" type="curve" smooth="yes"/>
      <point x="50" y="585"/>
      <point x="89" y="570"/>
      <point x="99" y="564" type="curve"/>
      <point x="107" y="563"/>
      <point x="126" y="553"/>
    </contour>
  </outline>
</glyph>
<glyph name="cedilla.uc" format="1">
  <advance width="833"/>
  <outline>
    <contour>
      <point x="153" y="-56" type="line"/>
      <point x="199" y="-68"/>
      <point x="247" y="-106"/>
      <point x="247" y="-154" type="curve" smooth="yes"/>
      <point x="247" y="-247"/>
      <point x="146" y="-271"/>
      <point x="85" y="-271" type="curve" smooth="yes"/>
      <point x="58" y="-271"/>
      <point x="33" y="-264"/>
      <point x="15" y="-246" type="curve"/>
      <point x="79" y="-242"/>
      <point x="139" y="-225"/>
      <point x="139" y="-166" type="curve" smooth="yes"/>
      <point x="139" y="-136"/>
      <point x="116" y="-110"/>
      <point x="72" y="-101" type="curve"/>
      <point x="147" y="0" type="line"/>
      <point x="197" y="0" type="line"/>
    </contour>
  </outline>
</glyph>
<glyph name="ring.uc" format="1">
  <advance width="833"/>
  <outline>
    <contour>
      <point x="115" y="584" type="curve" smooth="yes"/>
      <point x="115" y="525"/>
      <point x="165" y="497"/>
      <point x="228" y="497" type="curve" smooth="yes"/>
      <point x="292" y="497"/>
      <point x="343" y="525"/>
      <point x="343" y="584" type="curve" smooth="yes"/>
      <point x="343" y="642"/>
      <point x="292" y="671"/>
      <point x="228" y="671" type="curve" smooth="yes"/>
      <point x="165" y="671"/>
      <point x="115" y="642"/>
    </contour>
    <contour>
      <point x="184" y="584" type="curve" smooth="yes"/>
      <point x="184" y="624"/>
      <point x="204" y="637"/>
      <point x="229" y="637" type="curve" smooth="yes"/>
      <point x="255" y="637"/>
      <point x="275" y="624"/>
      <point x="275" y="584" type="curve" smooth="yes"/>
      <point x="275" y="545"/>
      <point x="255" y="533"/>
      <point x="229" y="533" type="curve" smooth="yes"/>
      <point x="204" y="533"/>
      <point x="184" y="545"/>
    </contour>
  </outline>
</glyph>
<glyph name="tilde.uc" format="1">
  <advance width="833"/>
  <outline>
    <contour>
      <point x="270" y="484" type="curve" smooth="yes"/>
      <point x="338" y="485"/>
      <point x="365" y="555"/>
      <point x="368" y="617" type="curve"/>
      <point x="355" y="619" type="line"/>
      <point x="354" y="604"/>
      <point x="339" y="574"/>
      <point x="280" y="574" type="curve" smooth="yes"/>
      <point x="236" y="574"/>
      <point x="184" y="621"/>
      <point x="127" y="621" type="curve" smooth="yes"/>
      <point x="65" y="621"/>
      <point x="31" y="554"/>
      <point x="28" y="492" type="curve"/>
      <point x="41" y="490" type="line"/>
      <point x="42" y="516"/>
      <point x="65" y="534"/>
      <point x="116" y="534" type="curve" smooth="yes"/>
      <point x="173" y="534"/>
      <point x="219" y="483"/>
    </contour>
  </outline>
</glyph>
